<mxfile host="app.diagrams.net" agent="Mozilla/5.0 (Macintosh; Intel Mac OS X 10_15_7) AppleWebKit/605.1.15 (KHTML, like Gecko) Version/17.6 Safari/605.1.15" version="24.7.16">
  <diagram name="Page-1" id="TaUfX6dQ_6sSOLUEPohV">
    <mxGraphModel dx="1652" dy="785" grid="1" gridSize="10" guides="1" tooltips="1" connect="1" arrows="1" fold="1" page="1" pageScale="1" pageWidth="850" pageHeight="1100" math="0" shadow="0">
      <root>
        <mxCell id="0" />
        <mxCell id="1" parent="0" />
        <mxCell id="M-IZh2_x-mo40waA8k21-18" style="edgeStyle=orthogonalEdgeStyle;rounded=0;orthogonalLoop=1;jettySize=auto;html=1;entryX=0.5;entryY=1;entryDx=0;entryDy=0;endArrow=baseDash;endFill=0;" parent="1" source="M-IZh2_x-mo40waA8k21-2" target="M-IZh2_x-mo40waA8k21-17" edge="1">
          <mxGeometry relative="1" as="geometry" />
        </mxCell>
        <mxCell id="M-IZh2_x-mo40waA8k21-19" style="edgeStyle=orthogonalEdgeStyle;rounded=0;orthogonalLoop=1;jettySize=auto;html=1;entryX=0.5;entryY=1;entryDx=0;entryDy=0;endArrow=baseDash;endFill=0;" parent="1" source="M-IZh2_x-mo40waA8k21-2" target="M-IZh2_x-mo40waA8k21-16" edge="1">
          <mxGeometry relative="1" as="geometry" />
        </mxCell>
        <mxCell id="M-IZh2_x-mo40waA8k21-21" value="" style="edgeStyle=orthogonalEdgeStyle;rounded=0;orthogonalLoop=1;jettySize=auto;html=1;endArrow=baseDash;endFill=0;" parent="1" source="M-IZh2_x-mo40waA8k21-2" target="M-IZh2_x-mo40waA8k21-20" edge="1">
          <mxGeometry relative="1" as="geometry" />
        </mxCell>
        <mxCell id="M-IZh2_x-mo40waA8k21-2" value="Song" style="rounded=0;whiteSpace=wrap;html=1;" parent="1" vertex="1">
          <mxGeometry x="80" y="260" width="120" height="60" as="geometry" />
        </mxCell>
        <mxCell id="R3kR3z40ssJg2MjRUmtv-1" style="edgeStyle=orthogonalEdgeStyle;rounded=0;orthogonalLoop=1;jettySize=auto;html=1;exitX=0.5;exitY=0;exitDx=0;exitDy=0;endArrow=baseDash;endFill=0;" parent="1" source="OT3dN3TAftwDxkAceLVw-1" target="M-IZh2_x-mo40waA8k21-3" edge="1">
          <mxGeometry relative="1" as="geometry" />
        </mxCell>
        <mxCell id="M-IZh2_x-mo40waA8k21-3" value="Music_Collection" style="rounded=0;whiteSpace=wrap;html=1;" parent="1" vertex="1">
          <mxGeometry x="80" y="621" width="120" height="60" as="geometry" />
        </mxCell>
        <mxCell id="M-IZh2_x-mo40waA8k21-4" value="Musician" style="rounded=0;whiteSpace=wrap;html=1;" parent="1" vertex="1">
          <mxGeometry x="290" y="410" width="120" height="60" as="geometry" />
        </mxCell>
        <mxCell id="M-IZh2_x-mo40waA8k21-8" style="edgeStyle=orthogonalEdgeStyle;rounded=0;orthogonalLoop=1;jettySize=auto;html=1;endArrow=baseDash;endFill=0;exitX=1;exitY=0.5;exitDx=0;exitDy=0;" parent="1" source="M-IZh2_x-mo40waA8k21-7" target="M-IZh2_x-mo40waA8k21-5" edge="1">
          <mxGeometry relative="1" as="geometry" />
        </mxCell>
        <mxCell id="M-IZh2_x-mo40waA8k21-39" style="edgeStyle=orthogonalEdgeStyle;rounded=0;orthogonalLoop=1;jettySize=auto;html=1;exitX=0;exitY=0.5;exitDx=0;exitDy=0;entryX=1;entryY=0.5;entryDx=0;entryDy=0;endArrow=baseDash;endFill=0;" parent="1" source="M-IZh2_x-mo40waA8k21-33" target="M-IZh2_x-mo40waA8k21-5" edge="1">
          <mxGeometry relative="1" as="geometry">
            <Array as="points">
              <mxPoint x="894" y="340" />
              <mxPoint x="894" y="440" />
            </Array>
          </mxGeometry>
        </mxCell>
        <mxCell id="M-IZh2_x-mo40waA8k21-47" style="edgeStyle=orthogonalEdgeStyle;rounded=0;orthogonalLoop=1;jettySize=auto;html=1;exitX=1;exitY=0.5;exitDx=0;exitDy=0;endArrow=baseDash;endFill=0;" parent="1" source="M-IZh2_x-mo40waA8k21-46" target="M-IZh2_x-mo40waA8k21-5" edge="1">
          <mxGeometry relative="1" as="geometry">
            <Array as="points">
              <mxPoint x="784" y="290" />
            </Array>
          </mxGeometry>
        </mxCell>
        <mxCell id="rp67jTKDv4jTURseV-1P-2" style="edgeStyle=orthogonalEdgeStyle;rounded=0;orthogonalLoop=1;jettySize=auto;html=1;exitX=0;exitY=0.5;exitDx=0;exitDy=0;endArrow=baseDash;endFill=0;" parent="1" source="rp67jTKDv4jTURseV-1P-1" edge="1">
          <mxGeometry relative="1" as="geometry">
            <mxPoint x="844" y="440" as="targetPoint" />
            <Array as="points">
              <mxPoint x="894" y="276" />
              <mxPoint x="894" y="440" />
            </Array>
          </mxGeometry>
        </mxCell>
        <mxCell id="OT3dN3TAftwDxkAceLVw-16" style="edgeStyle=orthogonalEdgeStyle;rounded=0;orthogonalLoop=1;jettySize=auto;html=1;exitX=0;exitY=0.5;exitDx=0;exitDy=0;entryX=1;entryY=0.5;entryDx=0;entryDy=0;endArrow=baseDash;endFill=0;" parent="1" source="OT3dN3TAftwDxkAceLVw-10" target="M-IZh2_x-mo40waA8k21-5" edge="1">
          <mxGeometry relative="1" as="geometry">
            <Array as="points">
              <mxPoint x="894" y="660" />
              <mxPoint x="894" y="440" />
            </Array>
          </mxGeometry>
        </mxCell>
        <mxCell id="M-IZh2_x-mo40waA8k21-5" value="User" style="rounded=0;whiteSpace=wrap;html=1;" parent="1" vertex="1">
          <mxGeometry x="724" y="410" width="120" height="60" as="geometry" />
        </mxCell>
        <mxCell id="M-IZh2_x-mo40waA8k21-9" style="edgeStyle=orthogonalEdgeStyle;rounded=0;orthogonalLoop=1;jettySize=auto;html=1;entryX=1;entryY=0.5;entryDx=0;entryDy=0;endArrow=baseDash;endFill=0;shape=link;" parent="1" source="M-IZh2_x-mo40waA8k21-7" target="M-IZh2_x-mo40waA8k21-4" edge="1">
          <mxGeometry relative="1" as="geometry">
            <mxPoint x="514" y="440" as="targetPoint" />
          </mxGeometry>
        </mxCell>
        <mxCell id="M-IZh2_x-mo40waA8k21-7" value="is" style="rhombus;whiteSpace=wrap;html=1;" parent="1" vertex="1">
          <mxGeometry x="579" y="400" width="80" height="80" as="geometry" />
        </mxCell>
        <mxCell id="M-IZh2_x-mo40waA8k21-13" value="" style="edgeStyle=orthogonalEdgeStyle;rounded=0;orthogonalLoop=1;jettySize=auto;html=1;endArrow=baseDash;endFill=0;shape=link;" parent="1" source="M-IZh2_x-mo40waA8k21-10" target="M-IZh2_x-mo40waA8k21-3" edge="1">
          <mxGeometry relative="1" as="geometry" />
        </mxCell>
        <mxCell id="M-IZh2_x-mo40waA8k21-10" value="creates" style="rhombus;whiteSpace=wrap;html=1;" parent="1" vertex="1">
          <mxGeometry x="100" y="450" width="80" height="80" as="geometry" />
        </mxCell>
        <mxCell id="rp67jTKDv4jTURseV-1P-3" style="edgeStyle=orthogonalEdgeStyle;rounded=0;orthogonalLoop=1;jettySize=auto;html=1;endArrow=baseDash;endFill=0;" parent="1" source="M-IZh2_x-mo40waA8k21-14" target="M-IZh2_x-mo40waA8k21-3" edge="1">
          <mxGeometry relative="1" as="geometry" />
        </mxCell>
        <mxCell id="M-IZh2_x-mo40waA8k21-14" value="type" style="ellipse;whiteSpace=wrap;html=1;" parent="1" vertex="1">
          <mxGeometry x="26" y="760" width="110" height="40" as="geometry" />
        </mxCell>
        <mxCell id="M-IZh2_x-mo40waA8k21-16" value="name" style="ellipse;whiteSpace=wrap;html=1;" parent="1" vertex="1">
          <mxGeometry x="20" y="170" width="110" height="40" as="geometry" />
        </mxCell>
        <mxCell id="M-IZh2_x-mo40waA8k21-17" value="duration" style="ellipse;whiteSpace=wrap;html=1;" parent="1" vertex="1">
          <mxGeometry x="150" y="170" width="110" height="40" as="geometry" />
        </mxCell>
        <mxCell id="M-IZh2_x-mo40waA8k21-20" value="type" style="ellipse;whiteSpace=wrap;html=1;" parent="1" vertex="1">
          <mxGeometry x="85" y="100" width="110" height="40" as="geometry" />
        </mxCell>
        <mxCell id="M-IZh2_x-mo40waA8k21-25" style="edgeStyle=orthogonalEdgeStyle;rounded=0;orthogonalLoop=1;jettySize=auto;html=1;entryX=0.5;entryY=1;entryDx=0;entryDy=0;endArrow=baseDash;endFill=0;exitX=1;exitY=0.5;exitDx=0;exitDy=0;" parent="1" source="M-IZh2_x-mo40waA8k21-23" edge="1">
          <mxGeometry relative="1" as="geometry">
            <mxPoint x="669" y="651" as="sourcePoint" />
            <mxPoint x="794" y="470" as="targetPoint" />
          </mxGeometry>
        </mxCell>
        <mxCell id="M-IZh2_x-mo40waA8k21-26" style="edgeStyle=orthogonalEdgeStyle;rounded=0;orthogonalLoop=1;jettySize=auto;html=1;entryX=1;entryY=0.5;entryDx=0;entryDy=0;endArrow=baseDash;endFill=0;" parent="1" source="M-IZh2_x-mo40waA8k21-23" target="M-IZh2_x-mo40waA8k21-3" edge="1">
          <mxGeometry relative="1" as="geometry" />
        </mxCell>
        <mxCell id="M-IZh2_x-mo40waA8k21-23" value="moderate" style="rhombus;whiteSpace=wrap;html=1;" parent="1" vertex="1">
          <mxGeometry x="579" y="611" width="80" height="80" as="geometry" />
        </mxCell>
        <mxCell id="M-IZh2_x-mo40waA8k21-31" style="edgeStyle=orthogonalEdgeStyle;rounded=0;orthogonalLoop=1;jettySize=auto;html=1;entryX=0;entryY=0.5;entryDx=0;entryDy=0;endArrow=baseDash;endFill=0;shape=link;" parent="1" source="M-IZh2_x-mo40waA8k21-29" target="M-IZh2_x-mo40waA8k21-2" edge="1">
          <mxGeometry relative="1" as="geometry">
            <Array as="points">
              <mxPoint y="290" />
            </Array>
          </mxGeometry>
        </mxCell>
        <mxCell id="M-IZh2_x-mo40waA8k21-72" style="edgeStyle=orthogonalEdgeStyle;rounded=0;orthogonalLoop=1;jettySize=auto;html=1;entryX=0;entryY=0.5;entryDx=0;entryDy=0;endArrow=baseDash;endFill=0;shape=link;" parent="1" source="M-IZh2_x-mo40waA8k21-29" target="M-IZh2_x-mo40waA8k21-3" edge="1">
          <mxGeometry relative="1" as="geometry">
            <Array as="points">
              <mxPoint y="651" />
            </Array>
          </mxGeometry>
        </mxCell>
        <mxCell id="M-IZh2_x-mo40waA8k21-29" value="belongs_to" style="rhombus;whiteSpace=wrap;html=1;" parent="1" vertex="1">
          <mxGeometry x="-40" y="400" width="80" height="80" as="geometry" />
        </mxCell>
        <mxCell id="M-IZh2_x-mo40waA8k21-33" value="name" style="ellipse;whiteSpace=wrap;html=1;" parent="1" vertex="1">
          <mxGeometry x="964" y="320" width="110" height="40" as="geometry" />
        </mxCell>
        <mxCell id="M-IZh2_x-mo40waA8k21-40" style="edgeStyle=orthogonalEdgeStyle;rounded=0;orthogonalLoop=1;jettySize=auto;html=1;endArrow=baseDash;endFill=0;" parent="1" source="M-IZh2_x-mo40waA8k21-35" edge="1">
          <mxGeometry relative="1" as="geometry">
            <mxPoint x="844" y="440" as="targetPoint" />
            <Array as="points">
              <mxPoint x="894" y="390" />
              <mxPoint x="894" y="440" />
            </Array>
          </mxGeometry>
        </mxCell>
        <mxCell id="M-IZh2_x-mo40waA8k21-35" value="email" style="ellipse;whiteSpace=wrap;html=1;" parent="1" vertex="1">
          <mxGeometry x="1014" y="370" width="110" height="40" as="geometry" />
        </mxCell>
        <mxCell id="M-IZh2_x-mo40waA8k21-42" style="edgeStyle=orthogonalEdgeStyle;rounded=0;orthogonalLoop=1;jettySize=auto;html=1;endArrow=baseDash;endFill=0;" parent="1" source="M-IZh2_x-mo40waA8k21-36" edge="1">
          <mxGeometry relative="1" as="geometry">
            <mxPoint x="844" y="440" as="targetPoint" />
            <Array as="points">
              <mxPoint x="894" y="490" />
              <mxPoint x="894" y="440" />
            </Array>
          </mxGeometry>
        </mxCell>
        <mxCell id="M-IZh2_x-mo40waA8k21-36" value="passwd" style="ellipse;whiteSpace=wrap;html=1;" parent="1" vertex="1">
          <mxGeometry x="1014" y="470" width="110" height="40" as="geometry" />
        </mxCell>
        <mxCell id="M-IZh2_x-mo40waA8k21-43" style="edgeStyle=orthogonalEdgeStyle;rounded=0;orthogonalLoop=1;jettySize=auto;html=1;endArrow=baseDash;endFill=0;" parent="1" source="M-IZh2_x-mo40waA8k21-37" edge="1">
          <mxGeometry relative="1" as="geometry">
            <mxPoint x="844" y="440" as="targetPoint" />
            <Array as="points">
              <mxPoint x="894" y="540" />
              <mxPoint x="894" y="440" />
            </Array>
          </mxGeometry>
        </mxCell>
        <mxCell id="M-IZh2_x-mo40waA8k21-37" value="date_of_birth" style="ellipse;whiteSpace=wrap;html=1;" parent="1" vertex="1">
          <mxGeometry x="964" y="520" width="110" height="40" as="geometry" />
        </mxCell>
        <mxCell id="M-IZh2_x-mo40waA8k21-41" style="edgeStyle=orthogonalEdgeStyle;rounded=0;orthogonalLoop=1;jettySize=auto;html=1;entryX=1;entryY=0.5;entryDx=0;entryDy=0;endArrow=baseDash;endFill=0;" parent="1" source="M-IZh2_x-mo40waA8k21-38" target="M-IZh2_x-mo40waA8k21-5" edge="1">
          <mxGeometry relative="1" as="geometry" />
        </mxCell>
        <mxCell id="M-IZh2_x-mo40waA8k21-38" value="bank_account_details" style="ellipse;whiteSpace=wrap;html=1;" parent="1" vertex="1">
          <mxGeometry x="964" y="420" width="140" height="40" as="geometry" />
        </mxCell>
        <mxCell id="M-IZh2_x-mo40waA8k21-45" style="edgeStyle=orthogonalEdgeStyle;rounded=0;orthogonalLoop=1;jettySize=auto;html=1;endArrow=baseDash;endFill=0;" parent="1" source="M-IZh2_x-mo40waA8k21-44" edge="1">
          <mxGeometry relative="1" as="geometry">
            <mxPoint x="844" y="440" as="targetPoint" />
            <Array as="points">
              <mxPoint x="894" y="600" />
              <mxPoint x="894" y="440" />
            </Array>
          </mxGeometry>
        </mxCell>
        <mxCell id="M-IZh2_x-mo40waA8k21-44" value="&lt;u&gt;user_name&lt;/u&gt;" style="ellipse;whiteSpace=wrap;html=1;" parent="1" vertex="1">
          <mxGeometry x="979" y="581" width="110" height="40" as="geometry" />
        </mxCell>
        <mxCell id="M-IZh2_x-mo40waA8k21-48" style="edgeStyle=orthogonalEdgeStyle;rounded=0;orthogonalLoop=1;jettySize=auto;html=1;entryX=1;entryY=0.5;entryDx=0;entryDy=0;endArrow=baseDash;endFill=0;" parent="1" source="M-IZh2_x-mo40waA8k21-46" target="M-IZh2_x-mo40waA8k21-2" edge="1">
          <mxGeometry relative="1" as="geometry" />
        </mxCell>
        <mxCell id="M-IZh2_x-mo40waA8k21-46" value="streams" style="rhombus;whiteSpace=wrap;html=1;" parent="1" vertex="1">
          <mxGeometry x="584" y="250" width="80" height="80" as="geometry" />
        </mxCell>
        <mxCell id="M-IZh2_x-mo40waA8k21-52" value="" style="edgeStyle=orthogonalEdgeStyle;rounded=0;orthogonalLoop=1;jettySize=auto;html=1;endArrow=baseDash;endFill=0;" parent="1" source="M-IZh2_x-mo40waA8k21-51" edge="1">
          <mxGeometry relative="1" as="geometry">
            <mxPoint x="295" y="410" as="targetPoint" />
          </mxGeometry>
        </mxCell>
        <mxCell id="M-IZh2_x-mo40waA8k21-51" value="&lt;u&gt;artist_name&lt;/u&gt;" style="ellipse;whiteSpace=wrap;html=1;" parent="1" vertex="1">
          <mxGeometry x="240" y="330" width="110" height="40" as="geometry" />
        </mxCell>
        <mxCell id="M-IZh2_x-mo40waA8k21-74" style="edgeStyle=orthogonalEdgeStyle;rounded=0;orthogonalLoop=1;jettySize=auto;html=1;endArrow=baseDash;endFill=0;exitX=1;exitY=0.5;exitDx=0;exitDy=0;" parent="1" source="M-IZh2_x-mo40waA8k21-73" edge="1">
          <mxGeometry relative="1" as="geometry">
            <mxPoint x="620.5" y="470" as="targetPoint" />
            <mxPoint x="330.5" y="550.0000000000001" as="sourcePoint" />
          </mxGeometry>
        </mxCell>
        <mxCell id="M-IZh2_x-mo40waA8k21-73" value="creates" style="rhombus;whiteSpace=wrap;html=1;" parent="1" vertex="1">
          <mxGeometry x="260" y="510" width="80" height="80" as="geometry" />
        </mxCell>
        <mxCell id="M-IZh2_x-mo40waA8k21-76" style="edgeStyle=orthogonalEdgeStyle;rounded=0;orthogonalLoop=1;jettySize=auto;html=1;entryX=0.664;entryY=0;entryDx=0;entryDy=0;entryPerimeter=0;endArrow=baseDash;endFill=0;shape=link;exitX=0;exitY=0.5;exitDx=0;exitDy=0;" parent="1" source="M-IZh2_x-mo40waA8k21-73" edge="1">
          <mxGeometry relative="1" as="geometry">
            <mxPoint x="248.00000000000023" y="549.9999999999999" as="sourcePoint" />
            <mxPoint x="147.68000000000006" y="621" as="targetPoint" />
          </mxGeometry>
        </mxCell>
        <mxCell id="M-IZh2_x-mo40waA8k21-77" value="1" style="text;html=1;align=center;verticalAlign=middle;resizable=0;points=[];autosize=1;strokeColor=none;fillColor=none;" parent="1" vertex="1">
          <mxGeometry x="754" y="463" width="30" height="30" as="geometry" />
        </mxCell>
        <mxCell id="M-IZh2_x-mo40waA8k21-78" value="N" style="text;html=1;align=center;verticalAlign=middle;resizable=0;points=[];autosize=1;strokeColor=none;fillColor=none;" parent="1" vertex="1">
          <mxGeometry x="145" y="596" width="30" height="30" as="geometry" />
        </mxCell>
        <mxCell id="M-IZh2_x-mo40waA8k21-79" value="M" style="text;html=1;align=center;verticalAlign=middle;resizable=0;points=[];autosize=1;strokeColor=none;fillColor=none;" parent="1" vertex="1">
          <mxGeometry x="260" y="450" width="30" height="30" as="geometry" />
        </mxCell>
        <mxCell id="M-IZh2_x-mo40waA8k21-80" value="N" style="text;html=1;align=center;verticalAlign=middle;resizable=0;points=[];autosize=1;strokeColor=none;fillColor=none;" parent="1" vertex="1">
          <mxGeometry x="111" y="596" width="30" height="30" as="geometry" />
        </mxCell>
        <mxCell id="M-IZh2_x-mo40waA8k21-81" value="N" style="text;html=1;align=center;verticalAlign=middle;resizable=0;points=[];autosize=1;strokeColor=none;fillColor=none;" parent="1" vertex="1">
          <mxGeometry x="114" y="316" width="30" height="30" as="geometry" />
        </mxCell>
        <mxCell id="M-IZh2_x-mo40waA8k21-84" value="M" style="text;html=1;align=center;verticalAlign=middle;resizable=0;points=[];autosize=1;strokeColor=none;fillColor=none;" parent="1" vertex="1">
          <mxGeometry x="196" y="264" width="30" height="30" as="geometry" />
        </mxCell>
        <mxCell id="M-IZh2_x-mo40waA8k21-85" value="N" style="text;html=1;align=center;verticalAlign=middle;resizable=0;points=[];autosize=1;strokeColor=none;fillColor=none;" parent="1" vertex="1">
          <mxGeometry x="54" y="261" width="30" height="30" as="geometry" />
        </mxCell>
        <mxCell id="M-IZh2_x-mo40waA8k21-86" value="1" style="text;html=1;align=center;verticalAlign=middle;resizable=0;points=[];autosize=1;strokeColor=none;fillColor=none;" parent="1" vertex="1">
          <mxGeometry x="54" y="649" width="30" height="30" as="geometry" />
        </mxCell>
        <mxCell id="M-IZh2_x-mo40waA8k21-87" value="1" style="text;html=1;align=center;verticalAlign=middle;resizable=0;points=[];autosize=1;strokeColor=none;fillColor=none;" parent="1" vertex="1">
          <mxGeometry x="699" y="438" width="30" height="30" as="geometry" />
        </mxCell>
        <mxCell id="M-IZh2_x-mo40waA8k21-88" value="0, 1" style="text;html=1;align=center;verticalAlign=middle;resizable=0;points=[];autosize=1;strokeColor=none;fillColor=none;" parent="1" vertex="1">
          <mxGeometry x="410" y="440" width="40" height="30" as="geometry" />
        </mxCell>
        <mxCell id="M-IZh2_x-mo40waA8k21-89" value="M" style="text;html=1;align=center;verticalAlign=middle;resizable=0;points=[];autosize=1;strokeColor=none;fillColor=none;" parent="1" vertex="1">
          <mxGeometry x="787" y="463" width="30" height="30" as="geometry" />
        </mxCell>
        <mxCell id="M-IZh2_x-mo40waA8k21-90" value="N" style="text;html=1;align=center;verticalAlign=middle;resizable=0;points=[];autosize=1;strokeColor=none;fillColor=none;" parent="1" vertex="1">
          <mxGeometry x="196" y="650" width="30" height="30" as="geometry" />
        </mxCell>
        <mxCell id="M-IZh2_x-mo40waA8k21-93" value="N" style="text;html=1;align=center;verticalAlign=middle;resizable=0;points=[];autosize=1;strokeColor=none;fillColor=none;" parent="1" vertex="1">
          <mxGeometry x="789" y="378" width="30" height="30" as="geometry" />
        </mxCell>
        <mxCell id="M-IZh2_x-mo40waA8k21-98" value="" style="edgeStyle=orthogonalEdgeStyle;rounded=0;orthogonalLoop=1;jettySize=auto;html=1;endArrow=baseDash;endFill=0;shape=link;" parent="1" source="M-IZh2_x-mo40waA8k21-94" target="M-IZh2_x-mo40waA8k21-2" edge="1">
          <mxGeometry relative="1" as="geometry" />
        </mxCell>
        <mxCell id="M-IZh2_x-mo40waA8k21-94" value="creates" style="rhombus;whiteSpace=wrap;html=1;" parent="1" vertex="1">
          <mxGeometry x="100" y="360" width="80" height="80" as="geometry" />
        </mxCell>
        <mxCell id="M-IZh2_x-mo40waA8k21-100" value="M" style="text;html=1;align=center;verticalAlign=middle;resizable=0;points=[];autosize=1;strokeColor=none;fillColor=none;" parent="1" vertex="1">
          <mxGeometry x="260" y="400" width="30" height="30" as="geometry" />
        </mxCell>
        <mxCell id="M-IZh2_x-mo40waA8k21-104" style="edgeStyle=orthogonalEdgeStyle;rounded=0;orthogonalLoop=1;jettySize=auto;html=1;entryX=0;entryY=0.333;entryDx=0;entryDy=0;entryPerimeter=0;endArrow=baseDash;endFill=0;" parent="1" source="M-IZh2_x-mo40waA8k21-94" target="M-IZh2_x-mo40waA8k21-4" edge="1">
          <mxGeometry relative="1" as="geometry" />
        </mxCell>
        <mxCell id="M-IZh2_x-mo40waA8k21-105" style="edgeStyle=orthogonalEdgeStyle;rounded=0;orthogonalLoop=1;jettySize=auto;html=1;entryX=0;entryY=0.667;entryDx=0;entryDy=0;entryPerimeter=0;endArrow=baseDash;endFill=0;" parent="1" source="M-IZh2_x-mo40waA8k21-10" target="M-IZh2_x-mo40waA8k21-4" edge="1">
          <mxGeometry relative="1" as="geometry" />
        </mxCell>
        <mxCell id="rp67jTKDv4jTURseV-1P-1" value="is_admin" style="ellipse;whiteSpace=wrap;html=1;" parent="1" vertex="1">
          <mxGeometry x="964" y="256" width="110" height="40" as="geometry" />
        </mxCell>
        <mxCell id="OT3dN3TAftwDxkAceLVw-1" value="cover_image" style="ellipse;whiteSpace=wrap;html=1;align=center;" parent="1" vertex="1">
          <mxGeometry x="150" y="760" width="100" height="40" as="geometry" />
        </mxCell>
        <mxCell id="OT3dN3TAftwDxkAceLVw-10" value="profile_picture" style="ellipse;whiteSpace=wrap;html=1;align=center;" parent="1" vertex="1">
          <mxGeometry x="1024" y="640" width="100" height="40" as="geometry" />
        </mxCell>
        <mxCell id="Q13qIYdsU2K48d8m2lTv-1" value="" style="edgeStyle=orthogonalEdgeStyle;rounded=0;orthogonalLoop=1;jettySize=auto;html=1;endArrow=baseDash;endFill=0;" edge="1" parent="1" source="Q13qIYdsU2K48d8m2lTv-2">
          <mxGeometry relative="1" as="geometry">
            <mxPoint x="405" y="410" as="targetPoint" />
          </mxGeometry>
        </mxCell>
        <mxCell id="Q13qIYdsU2K48d8m2lTv-2" value="birth_country" style="ellipse;whiteSpace=wrap;html=1;" vertex="1" parent="1">
          <mxGeometry x="350" y="330" width="110" height="40" as="geometry" />
        </mxCell>
      </root>
    </mxGraphModel>
  </diagram>
</mxfile>
